<svg width="1885" height="1576" viewBox="0 0 1885 1576" fill="none" xmlns="http://www.w3.org/2000/svg">
<g clip-path="url(#clip0)">
<g opacity="0.3" filter="url(#filter0_f)">
<path d="M727.333 764.396C755.207 760.719 782.587 732.335 810.602 732.083C817.825 732.615 835.212 726.351 846.972 697.048C875.689 671.83 893.075 581.321 927.773 564.522C953.317 552.155 983.993 538.985 1012.25 550.445C1034.03 559.281 1049.83 578.806 1062.26 597.965C1080.27 625.719 1093.45 657.075 1099.85 689.572C1120.73 795.512 1082.67 905.993 1034.21 998.899C975.155 1112.1 885.205 1203.42 780.303 1275.18C737.042 1304.78 691.635 1330.14 641.903 1347.04C596.114 1362.6 548.367 1373.42 500.453 1379.86C439.458 1388.06 376.119 1387.62 316.896 1369.42C271.853 1355.57 238.38 1324.29 213.592 1284.73C179.705 1230.66 178.433 1165.7 204.916 1107.62C221.25 1071.8 255.424 1034.82 298.531 1040.54C331.414 1044.91 358.776 1068.12 386.125 1084.83C404.402 1095.99 430.489 1111.42 450.788 1096.72C485.125 1071.86 511.378 1033.47 534.026 998.518C562.957 953.87 577.658 903.246 599.857 855.402C612.642 827.847 636.04 807.795 660.657 790.897C680.449 777.31 703.436 767.548 727.333 764.396Z" fill="#7928CA"/>
</g>
<g opacity="0.3" filter="url(#filter1_f)">
<path d="M758.079 676.55C774.791 685.635 801.069 681.008 816.494 692.023C820.234 695.189 832.238 698.684 850.337 687.336C876.086 684.973 921.628 642.383 947.296 647.007C966.193 650.41 988.217 655.418 999.11 672.935C1007.51 686.44 1008.38 703.41 1007.55 718.841C1006.36 741.193 1001.08 763.59 991.647 783.916C960.893 850.181 896.094 895.468 832.596 926.997C755.226 965.414 669.669 979.557 583.713 977.055C548.266 976.024 513.331 971.819 479.398 961.266C448.156 951.549 417.728 938.463 388.953 922.911C352.323 903.113 317.848 877.66 292.7 844.123C273.573 818.616 267.714 788.179 269.901 756.674C272.89 713.603 298.055 677.561 335.663 656.334C358.858 643.241 392.276 636.614 413.576 656.908C429.825 672.389 435.557 695.973 443.865 716.002C449.418 729.387 457.547 748.211 474.502 748.251C503.184 748.319 532.827 737.771 559.131 727.668C592.732 714.761 620.927 692.92 652.116 675.586C670.08 665.602 690.863 663.947 711.056 664.503C727.292 664.95 743.753 668.761 758.079 676.55Z" fill="#FF0080"/>
</g>
<g opacity="0.3" filter="url(#filter2_f)">
<path d="M1458.09 507.412C1465 531.241 1491.85 542.713 1496.01 568.322C1496.6 575.212 1504.13 588.162 1529.52 584.845C1553.99 599.07 1629.75 571.431 1648.25 595.205C1661.87 612.707 1676.86 634.536 1671.57 666.006C1667.49 690.27 1653.91 714.188 1640.15 734.839C1620.21 764.752 1596.68 791.957 1571.27 813.496C1488.42 883.712 1393.57 901.992 1311.49 902.241C1211.48 902.546 1124.84 863.927 1051.91 802.159C1021.84 776.686 994.89 747.2 974.184 709.666C955.12 675.109 939.615 636.472 927.637 595.568C912.389 543.497 903.801 485.115 910.188 421.95C915.046 373.908 935.653 328.095 964.187 286.272C1003.2 229.095 1055.62 196.63 1106.4 192.971C1137.71 190.715 1172.49 204.282 1173.93 246.632C1175.03 278.939 1160.11 315.248 1150.43 348.417C1143.97 370.583 1135.16 401.976 1149.93 413.537C1174.91 433.094 1209.7 438.711 1241.2 442.672C1281.45 447.732 1324.52 436.843 1366.4 434.18C1390.52 432.646 1410.06 444.475 1427.22 458.942C1441.02 470.575 1452.17 486.983 1458.09 507.412Z" fill="#F7B955"/>
</g>
</g>
<defs>
<filter id="filter0_f" x="-140" y="174" width="1666.43" height="1651.81" filterUnits="userSpaceOnUse" color-interpolation-filters="sRGB">
<feFlood flood-opacity="0" result="BackgroundImageFix"/>
<feBlend mode="normal" in="SourceGraphic" in2="BackgroundImageFix" result="shape"/>
<feGaussianBlur stdDeviation="125" result="effect1_foregroundBlur"/>
</filter>
<filter id="filter1_f" x="3" y="309" width="1285.32" height="965.599" filterUnits="userSpaceOnUse" color-interpolation-filters="sRGB">
<feFlood flood-opacity="0" result="BackgroundImageFix"/>
<feBlend mode="normal" in="SourceGraphic" in2="BackgroundImageFix" result="shape"/>
<feGaussianBlur stdDeviation="125" result="effect1_foregroundBlur"/>
</filter>
<filter id="filter2_f" x="517" y="-107" width="1491.1" height="1393.09" filterUnits="userSpaceOnUse" color-interpolation-filters="sRGB">
<feFlood flood-opacity="0" result="BackgroundImageFix"/>
<feBlend mode="normal" in="SourceGraphic" in2="BackgroundImageFix" result="shape"/>
<feGaussianBlur stdDeviation="125" result="effect1_foregroundBlur"/>
</filter>
<clipPath id="clip0">
<rect width="1885" height="1576" fill="white"/>
</clipPath>
</defs>
</svg>
